# xmcd
#
# Track frame offsets: 
#        150
#        24286
#        43321
#        66455
#        82929
#        103833
#        119702
#        134512
#        147554
#        165368
#        183503
#        207190
#        224905
#        238861
#        250707
#        268490
#        292273
#
# Disc length: 4101 seconds
#
# Revision: 3
# Processed by: cddbd v1.5.2PL0 Copyright (c) Steve Scherf et al.
# Submitted via: ExactAudioCopyFreeDBPlugin 1.0
#
DISCID=1e100311
DTITLE=Various Artist - Jazz in the City 2
DYEAR=2008
DGENRE=Jazz
TTITLE0=Aselin Debison - Over the Rainbow - What a Wonderful World (Me
TTITLE0=dley)
TTITLE1=Lisa Ekdahl - Rivers of Love
TTITLE2=Norah Jones - Heart of Mine
TTITLE3=Johnny Mathis - The Rainbow Connection
TTITLE4=Carly Simon - I Only Have Eyes for You
TTITLE5=Renee Olstead - A Love That Will Last
TTITLE6=Almost Blue - Everything But The Girl
TTITLE7=Julia Fordham - Lovin' You
TTITLE8=Basics - Waters of March
TTITLE9=K.D. Lang - After the Gold
TTITLE10=Luther Vandross - What the World Needs Now
TTITLE11=Diana Krall - I Remember You
TTITLE12=Will Young - What's In Goodbye
TTITLE13=Cyndi Lauper - My Baby Just Cares for Me
TTITLE14=Peter White - Fantasy
TTITLE15=Chris Botti - The Look of Love
TTITLE16=Tony Bennett and K.D. Lang - La Vie En Rose
EXTD=YEAR: 2008
EXTT0=
EXTT1=
EXTT2=
EXTT3=
EXTT4=
EXTT5=
EXTT6=
EXTT7=
EXTT8=
EXTT9=
EXTT10=
EXTT11=
EXTT12=
EXTT13=
EXTT14=
EXTT15=
EXTT16=
PLAYORDER=
